<svg xmlns="http://www.w3.org/2000/svg" width="16" height="22" viewBox="0 0 16 22"><g><g><path fill="#2d2e7f" d="M10.689 20.991c-.76-.261-1.62-.75-2.512-1.44-1.955-1.515-3.852-3.83-5.342-6.52C1.345 10.34.442 7.6.294 5.317.159 3.243.67 1.754 1.66 1.333c.143-.06.29-.128.441-.197C3.018.72 4.052.252 5.074.641c.703.272 1.256.909 1.69 1.945 1.283 3.06.054 3.57-1.369 4.16l-.251.106c-.234.1-.827.727 1.335 4.63.705 1.273 1.345 2.248 1.902 2.897.35.408 1.001 1.067 1.423.887l.255-.109c1.409-.61 2.626-1.137 4.574 1.637.66.94.889 1.713.697 2.366-.278.946-1.344 1.367-2.285 1.738-.155.062-.306.121-.448.181-.493.21-1.152.173-1.908-.088z"/></g></g></svg>